<mxfile host="app.diagrams.net" modified="2023-12-04T04:31:35.108Z" agent="Mozilla/5.0 (Macintosh; Intel Mac OS X 10_15_7) AppleWebKit/537.36 (KHTML, like Gecko) Chrome/119.0.0.0 Safari/537.36" version="22.1.5" etag="CbdAGEBE5-2D-2mS2NYh" type="github">
  <diagram name="Page-1" id="STKLPThB-bbxU-cTSj0k">
    <mxGraphModel>
      <root>
        <mxCell id="0" />
        <mxCell id="1" parent="0" />
      </root>
    </mxGraphModel>
  </diagram>
</mxfile>
